<mxfile host="65bd71144e">
    <diagram id="LOKKSFyuJx2BbzAw-Vqr" name="Page-1">
        <mxGraphModel dx="1011" dy="592" grid="1" gridSize="10" guides="1" tooltips="1" connect="1" arrows="1" fold="1" page="1" pageScale="1" pageWidth="850" pageHeight="1100" math="0" shadow="0">
            <root>
                <mxCell id="0"/>
                <mxCell id="1" parent="0"/>
                <mxCell id="45" value="" style="rounded=0;whiteSpace=wrap;html=1;" vertex="1" parent="1">
                    <mxGeometry x="280" y="240" width="440" height="440" as="geometry"/>
                </mxCell>
                <mxCell id="46" value="" style="rounded=0;whiteSpace=wrap;html=1;" vertex="1" parent="1">
                    <mxGeometry x="320" y="520" width="360" height="120" as="geometry"/>
                </mxCell>
                <mxCell id="2" value="Orbit" style="rounded=0;whiteSpace=wrap;html=1;fillColor=#dae8fc;strokeColor=#6c8ebf;" vertex="1" parent="1">
                    <mxGeometry x="320" y="440" width="360" height="40" as="geometry"/>
                </mxCell>
                <mxCell id="3" value="" style="rounded=0;whiteSpace=wrap;html=1;" vertex="1" parent="1">
                    <mxGeometry x="320" y="270" width="360" height="130" as="geometry"/>
                </mxCell>
                <mxCell id="4" value="Local Project" style="rounded=0;whiteSpace=wrap;html=1;fillColor=#ffe6cc;strokeColor=#d79b00;" vertex="1" parent="1">
                    <mxGeometry x="350" y="310" width="80" height="70" as="geometry"/>
                </mxCell>
                <mxCell id="5" value="Existing IP" style="rounded=0;whiteSpace=wrap;html=1;fillColor=#d5e8d4;strokeColor=#82b366;" vertex="1" parent="1">
                    <mxGeometry x="460" y="310" width="190" height="70" as="geometry"/>
                </mxCell>
                <mxCell id="26" value="Codebase" style="text;html=1;strokeColor=none;fillColor=none;align=center;verticalAlign=middle;whiteSpace=wrap;rounded=0;" vertex="1" parent="1">
                    <mxGeometry x="330" y="270" width="60" height="30" as="geometry"/>
                </mxCell>
                <mxCell id="28" value="" style="endArrow=classic;startArrow=classic;html=1;entryX=0.5;entryY=1;entryDx=0;entryDy=0;exitX=0.25;exitY=0;exitDx=0;exitDy=0;jumpStyle=none;edgeStyle=orthogonalEdgeStyle;rounded=0;" edge="1" parent="1" source="2" target="4">
                    <mxGeometry width="50" height="50" relative="1" as="geometry">
                        <mxPoint x="690" y="500" as="sourcePoint"/>
                        <mxPoint x="740" y="450" as="targetPoint"/>
                        <Array as="points">
                            <mxPoint x="410" y="420"/>
                            <mxPoint x="390" y="420"/>
                        </Array>
                    </mxGeometry>
                </mxCell>
                <mxCell id="30" value="" style="endArrow=classic;html=1;rounded=0;jumpStyle=none;edgeStyle=orthogonalEdgeStyle;entryX=0.75;entryY=0;entryDx=0;entryDy=0;exitX=0.5;exitY=1;exitDx=0;exitDy=0;" edge="1" parent="1" source="5" target="2">
                    <mxGeometry width="50" height="50" relative="1" as="geometry">
                        <mxPoint x="760" y="350" as="sourcePoint"/>
                        <mxPoint x="740" y="450" as="targetPoint"/>
                        <Array as="points">
                            <mxPoint x="555" y="420"/>
                            <mxPoint x="590" y="420"/>
                        </Array>
                    </mxGeometry>
                </mxCell>
                <mxCell id="31" value="" style="endArrow=classic;html=1;rounded=0;jumpStyle=none;edgeStyle=orthogonalEdgeStyle;exitX=0.5;exitY=1;exitDx=0;exitDy=0;entryX=0.5;entryY=0;entryDx=0;entryDy=0;" edge="1" parent="1" source="2" target="70">
                    <mxGeometry width="50" height="50" relative="1" as="geometry">
                        <mxPoint x="580" y="350" as="sourcePoint"/>
                        <mxPoint x="449" y="520" as="targetPoint"/>
                        <Array as="points">
                            <mxPoint x="500" y="500"/>
                            <mxPoint x="449" y="500"/>
                        </Array>
                    </mxGeometry>
                </mxCell>
                <mxCell id="47" value="Toolchains" style="text;html=1;strokeColor=none;fillColor=none;align=center;verticalAlign=middle;whiteSpace=wrap;rounded=0;" vertex="1" parent="1">
                    <mxGeometry x="330" y="520" width="60" height="30" as="geometry"/>
                </mxCell>
                <mxCell id="63" value="" style="group" vertex="1" connectable="0" parent="1">
                    <mxGeometry x="590" y="529.9983333333333" width="77.26999999999998" height="100.00166666666667" as="geometry"/>
                </mxCell>
                <mxCell id="62" value="" style="rounded=0;whiteSpace=wrap;html=1;fillColor=#e1d5e7;strokeColor=#9673a6;" vertex="1" parent="63">
                    <mxGeometry y="3.2316666666666833" width="77.27" height="96.77" as="geometry"/>
                </mxCell>
                <mxCell id="59" value="EDA Tool" style="rounded=0;whiteSpace=wrap;html=1;" vertex="1" parent="63">
                    <mxGeometry x="5.9027272727272475" y="29.996062499999994" width="65.45454545454545" height="24.635416666666668" as="geometry"/>
                </mxCell>
                <mxCell id="60" value="EDA Tool" style="rounded=0;whiteSpace=wrap;html=1;" vertex="1" parent="63">
                    <mxGeometry x="5.899999999999977" y="63.001666666666665" width="64.09" height="26.77" as="geometry"/>
                </mxCell>
                <mxCell id="61" value="Target" style="text;html=1;align=center;verticalAlign=middle;resizable=0;points=[];autosize=1;strokeColor=none;fillColor=none;" vertex="1" parent="63">
                    <mxGeometry x="7.944545454545391" width="60" height="30" as="geometry"/>
                </mxCell>
                <mxCell id="64" value="" style="group" vertex="1" connectable="0" parent="1">
                    <mxGeometry x="500" y="529.9983333333333" width="77.26999999999998" height="100.00166666666667" as="geometry"/>
                </mxCell>
                <mxCell id="65" value="" style="rounded=0;whiteSpace=wrap;html=1;fillColor=#e1d5e7;strokeColor=#9673a6;" vertex="1" parent="64">
                    <mxGeometry y="3.2316666666666833" width="77.27" height="96.77" as="geometry"/>
                </mxCell>
                <mxCell id="66" value="EDA Tool" style="rounded=0;whiteSpace=wrap;html=1;" vertex="1" parent="64">
                    <mxGeometry x="5.9" y="30" width="65.45" height="60" as="geometry"/>
                </mxCell>
                <mxCell id="68" value="Target" style="text;html=1;align=center;verticalAlign=middle;resizable=0;points=[];autosize=1;strokeColor=none;fillColor=none;" vertex="1" parent="64">
                    <mxGeometry x="7.944545454545391" width="60" height="30" as="geometry"/>
                </mxCell>
                <mxCell id="69" value="" style="group" vertex="1" connectable="0" parent="1">
                    <mxGeometry x="410" y="529.9983333333333" width="77.26999999999998" height="100.00166666666667" as="geometry"/>
                </mxCell>
                <mxCell id="70" value="" style="rounded=0;whiteSpace=wrap;html=1;fillColor=#e1d5e7;strokeColor=#9673a6;" vertex="1" parent="69">
                    <mxGeometry y="3.2316666666666833" width="77.27" height="96.77" as="geometry"/>
                </mxCell>
                <mxCell id="71" value="EDA Tool" style="rounded=0;whiteSpace=wrap;html=1;" vertex="1" parent="69">
                    <mxGeometry x="5.9027272727272475" y="29.996062499999994" width="65.45454545454545" height="24.635416666666668" as="geometry"/>
                </mxCell>
                <mxCell id="72" value="EDA Tool" style="rounded=0;whiteSpace=wrap;html=1;" vertex="1" parent="69">
                    <mxGeometry x="5.899999999999977" y="63.001666666666665" width="64.09" height="26.77" as="geometry"/>
                </mxCell>
                <mxCell id="74" value="Target" style="text;html=1;align=center;verticalAlign=middle;resizable=0;points=[];autosize=1;strokeColor=none;fillColor=none;" vertex="1" parent="69">
                    <mxGeometry x="7.944545454545391" width="60" height="30" as="geometry"/>
                </mxCell>
            </root>
        </mxGraphModel>
    </diagram>
</mxfile>